<?xml version="1.0" encoding="UTF-8" standalone="no"?>
<!-- Created with Inkscape (http://www.inkscape.org/) -->
<svg
   xmlns:dc="http://purl.org/dc/elements/1.1/"
   xmlns:cc="http://creativecommons.org/ns#"
   xmlns:rdf="http://www.w3.org/1999/02/22-rdf-syntax-ns#"
   xmlns:svg="http://www.w3.org/2000/svg"
   xmlns="http://www.w3.org/2000/svg"
   xmlns:sodipodi="http://sodipodi.sourceforge.net/DTD/sodipodi-0.dtd"
   xmlns:inkscape="http://www.inkscape.org/namespaces/inkscape"
   width="48"
   height="48"
   id="svg2"
   sodipodi:version="0.32"
   inkscape:version="0.46"
   version="1.0"
   sodipodi:docname="cangjie.svg"
   inkscape:output_extension="org.inkscape.output.svg.inkscape">
  <defs
     id="defs4">
    <inkscape:perspective
       sodipodi:type="inkscape:persp3d"
       inkscape:vp_x="0 : 526.18109 : 1"
       inkscape:vp_y="0 : 1000 : 0"
       inkscape:vp_z="744.09448 : 526.18109 : 1"
       inkscape:persp3d-origin="372.04724 : 350.78739 : 1"
       id="perspective10" />
  </defs>
  <sodipodi:namedview
     id="base"
     pagecolor="#ffffff"
     bordercolor="#666666"
     borderopacity="1.0"
     gridtolerance="10000"
     guidetolerance="10"
     objecttolerance="10"
     inkscape:pageopacity="0.0"
     inkscape:pageshadow="2"
     inkscape:zoom="3.959798"
     inkscape:cx="11.808754"
     inkscape:cy="24.544939"
     inkscape:document-units="px"
     inkscape:current-layer="layer1"
     showgrid="false"
     inkscape:window-width="977"
     inkscape:window-height="737"
     inkscape:window-x="41"
     inkscape:window-y="31" />
  <metadata
     id="metadata7">
    <rdf:RDF>
      <cc:Work
         rdf:about="">
        <dc:format>image/svg+xml</dc:format>
        <dc:type
           rdf:resource="http://purl.org/dc/dcmitype/StillImage" />
      </cc:Work>
    </rdf:RDF>
  </metadata>
  <g
     inkscape:label="Layer 1"
     inkscape:groupmode="layer"
     id="layer1">
    <g
       id="g3163"
       transform="matrix(1.2121455,0,0,1.2121455,-3.5724652,-2.8160374)">
      <path
         id="text3157"
         d="M 21.287968,6.5259238 C 21.143788,6.6701038 21.143788,6.8142848 21.143788,7.1026448 C 21.143788,7.6793648 21.143788,8.1119058 21.143788,8.5444458 C 18.548549,13.734925 14.511497,18.492879 8.8884777,22.674098 C 8.3117577,22.962458 8.1675777,23.250818 8.3117567,23.394998 C 8.3117567,23.683358 8.7442977,23.539178 9.3210177,23.250818 C 14.223137,20.799759 18.54855,16.618527 22.585589,10.562968 C 28.352788,16.330167 31.813118,19.357955 33.110738,19.646315 C 34.985078,19.934675 37.291964,19.934675 40.031384,19.790495 C 40.463924,19.790495 40.752284,19.646315 40.896464,19.357955 C 40.752284,19.069595 40.463924,18.925415 40.031384,18.781235 C 34.552545,17.916155 28.929509,15.032546 23.30649,9.8420668 C 23.30649,9.6978868 23.59485,9.4095268 23.88321,9.1211668 C 24.17157,8.8328068 24.315751,8.6886258 24.315751,8.4002658 C 23.739031,7.5351858 22.729768,6.9584638 21.287968,6.5259238 M 24.315751,16.330173 C 24.027391,15.753453 23.450669,15.320911 22.585589,15.032551 C 21.28797,14.888372 20.711248,15.032552 20.855428,15.465092 C 20.855428,15.609272 20.999608,15.753452 21.287968,16.041812 C 22.008868,17.051072 22.58559,17.771974 23.16231,18.060334 C 24.02739,18.348694 24.315751,17.771972 24.315751,16.330173 M 26.766813,18.348694 C 26.622633,18.348694 26.478452,18.492874 26.190092,18.637054 C 24.459933,19.502134 22.297226,19.790495 19.557807,19.790495 C 18.260187,19.502135 17.539285,19.357955 17.250925,19.502135 C 17.106745,19.502135 17.106745,19.790496 17.250925,20.078856 C 17.395105,20.655576 17.539285,21.232297 17.539285,21.664837 C 17.106745,27.576216 14.367318,32.62253 9.4651977,36.659569 C 8.8884787,37.092109 8.7442977,37.38047 8.8884777,37.52465 C 9.0326577,37.66883 9.3210187,37.52465 9.8977387,37.09211 C 13.646418,34.92941 16.385846,31.901622 18.116006,28.008762 C 19.557805,28.008762 21.864692,27.864582 25.036651,27.432042 L 25.613372,27.432042 C 25.901732,27.864582 26.334273,28.008762 26.622633,28.008762 C 26.766813,28.008762 27.055173,27.864582 27.343533,27.287862 L 27.487713,27.143681 C 27.631893,26.855322 27.920254,25.701878 28.352794,23.827539 C 28.496974,22.962459 28.641154,22.241557 28.785334,21.809017 C 28.785334,21.520657 29.073695,21.088116 29.506235,20.799756 C 29.650415,20.655576 29.794595,20.511396 29.794595,20.367216 C 28.929515,19.502136 27.920253,18.781234 26.766813,18.348694 M 25.613372,20.078856 C 26.334272,19.934676 26.622633,20.223037 26.622633,21.088116 C 26.622633,22.962456 26.334272,24.836801 25.757552,26.566961 C 25.180832,26.278601 23.883208,26.278601 21.864689,26.711141 C 20.422889,26.999501 19.269446,27.143681 18.404366,27.143681 C 18.692726,25.990242 18.981086,25.269339 18.981086,24.692619 C 20.134526,24.692619 22.008871,24.404259 24.604111,23.971719 C 25.036651,23.971719 25.325012,23.683358 25.325012,23.394998 C 25.180832,23.106638 24.892471,22.818278 24.459931,22.818278 C 23.306491,22.818278 21.576326,23.106639 19.125266,23.539179 C 19.125266,23.250819 19.125267,22.962457 19.269447,22.385738 C 19.413627,21.664838 19.557807,21.088116 19.557807,20.799756 C 22.873946,20.367216 24.892472,20.078856 25.613372,20.078856 M 27.776074,29.738924 C 27.631894,29.738924 27.343533,29.883104 26.910993,30.027284 C 24.748293,30.748184 22.297226,31.180725 19.557807,31.324905 C 17.971827,31.180725 17.106745,31.180725 17.106745,31.324905 C 16.962565,31.613265 17.106745,31.901626 17.395105,32.189986 C 17.683465,32.622526 17.827645,32.910887 17.971825,33.199246 C 17.971825,33.631786 18.116006,34.208508 18.260186,35.073588 C 18.548546,36.371208 18.692726,37.23629 18.836906,37.52465 C 18.981086,38.10137 19.269447,38.533911 19.701987,38.533911 C 19.990347,38.533911 20.278707,38.10137 20.278707,37.38047 C 22.008867,37.38047 24.315753,37.092109 27.055173,36.659569 C 27.776073,36.659569 28.352794,36.515389 28.641154,36.515389 C 29.073694,36.515389 29.362055,36.227029 29.362055,35.938669 C 29.362055,35.794489 29.217874,35.506128 28.785334,35.217768 C 29.073694,34.064328 29.794596,33.199246 30.803856,32.334166 C 31.092216,32.045806 31.380577,31.901625 31.380577,31.757445 C 30.659677,30.748185 29.506233,30.027284 27.776074,29.738924 M 26.622633,31.613265 C 27.199353,31.469085 27.487713,31.757446 27.487713,32.334166 C 27.343533,33.487606 27.199353,34.496868 26.910993,35.217768 C 25.325013,35.506128 23.018127,35.938669 20.134527,36.227029 L 19.846167,32.334166 C 24.171566,31.901626 26.334273,31.613265 26.622633,31.613265"
         style="font-size:36.91011047px;font-style:normal;font-variant:normal;font-weight:normal;font-stretch:normal;fill:#5b5b5b;fill-opacity:1;stroke:none;stroke-width:1px;stroke-linecap:butt;stroke-linejoin:miter;stroke-opacity:1;font-family:'方正楷体';-inkscape-font-specification:'方正楷体'" />
      <path
         id="text2383"
         d="M 20.925339,5.7116641 C 20.781159,5.8558441 20.781158,6.0000246 20.781158,6.2883846 C 20.781158,6.8651045 20.781158,7.2976458 20.781158,7.7301857 C 18.185919,12.920665 14.148867,17.678618 8.5258483,21.859837 C 7.9491284,22.148197 7.8049478,22.436558 7.9491278,22.580738 C 7.9491278,22.869098 8.3816687,22.724918 8.9583886,22.436558 C 13.860508,19.985498 18.18592,15.804266 22.22296,9.7487074 C 27.990159,15.515906 31.450488,18.543695 32.748108,18.832055 C 34.622448,19.120415 36.929334,19.120415 39.668754,18.976235 C 40.101294,18.976235 40.389655,18.832055 40.533835,18.543695 C 40.389655,18.255335 40.101294,18.111154 39.668754,17.966974 C 34.189915,17.101894 28.566879,14.218286 22.94386,9.0278068 C 22.94386,8.8836268 23.232221,8.5952662 23.520581,8.3069062 C 23.808941,8.0185463 23.953121,7.8743656 23.953121,7.5860056 C 23.376401,6.7209258 22.367138,6.144204 20.925339,5.7116641 M 23.953121,15.515912 C 23.664761,14.939192 23.088039,14.506651 22.22296,14.218291 C 20.92534,14.074111 20.348618,14.218292 20.492798,14.650831 C 20.492798,14.795011 20.636979,14.939192 20.925339,15.227552 C 21.646238,16.236812 22.22296,16.957714 22.79968,17.246074 C 23.66476,17.534434 23.953121,16.957712 23.953121,15.515912 M 26.404183,17.534434 C 26.260003,17.534434 26.115823,17.678614 25.827463,17.822794 C 24.097303,18.687874 21.934597,18.976235 19.195177,18.976235 C 17.897557,18.687875 17.176655,18.543695 16.888295,18.687875 C 16.744115,18.687875 16.744115,18.976235 16.888295,19.264595 C 17.032475,19.841315 17.176655,20.418037 17.176655,20.850577 C 16.744115,26.761956 14.004688,31.80827 9.1025687,35.845309 C 8.5258488,36.277849 8.3816683,36.56621 8.5258483,36.71039 C 8.6700282,36.85457 8.9583892,36.710389 9.5351091,36.277849 C 13.283788,34.11515 16.023216,31.087361 17.753376,27.194502 C 19.195176,27.194502 21.502062,27.050321 24.674022,26.617781 L 25.250742,26.617781 C 25.539102,27.050321 25.971643,27.194502 26.260003,27.194502 C 26.404183,27.194502 26.692544,27.050321 26.980904,26.473601 L 27.125084,26.329421 C 27.269264,26.041061 27.557624,24.887618 27.990164,23.013278 C 28.134344,22.148199 28.278525,21.427297 28.422705,20.994757 C 28.422705,20.706397 28.711065,20.273856 29.143605,19.985496 C 29.287785,19.841316 29.431966,19.697135 29.431966,19.552956 C 28.566886,18.687876 27.557623,17.966974 26.404183,17.534434 M 25.250742,19.264595 C 25.971642,19.120415 26.260003,19.408776 26.260003,20.273856 C 26.260003,22.148196 25.971642,24.022541 25.394922,25.752701 C 24.818202,25.464341 23.520579,25.464341 21.502059,25.896881 C 20.060259,26.185241 18.906816,26.329421 18.041736,26.329421 C 18.330096,25.175981 18.618457,24.455079 18.618457,23.878359 C 19.771896,23.878359 21.646242,23.589998 24.241481,23.157458 C 24.674021,23.157458 24.962382,22.869098 24.962382,22.580738 C 24.818202,22.292378 24.529841,22.004018 24.097301,22.004018 C 22.943861,22.004018 21.213696,22.292378 18.762637,22.724918 C 18.762637,22.436558 18.762637,22.148197 18.906817,21.571477 C 19.050997,20.850577 19.195177,20.273856 19.195177,19.985496 C 22.511316,19.552956 24.529842,19.264595 25.250742,19.264595 M 27.413444,28.924663 C 27.269264,28.924663 26.980903,29.068844 26.548363,29.213023 C 24.385664,29.933923 21.934597,30.366465 19.195177,30.510645 C 17.609197,30.366465 16.744115,30.366465 16.744115,30.510645 C 16.599935,30.799005 16.744115,31.087365 17.032475,31.375725 C 17.320835,31.808265 17.465016,32.096626 17.609196,32.384986 C 17.609196,32.817526 17.753376,33.394248 17.897556,34.259328 C 18.185916,35.556947 18.330097,36.42203 18.474276,36.71039 C 18.618456,37.28711 18.906817,37.719651 19.339357,37.719651 C 19.627717,37.719651 19.916078,37.287109 19.916078,36.56621 C 21.646237,36.56621 23.953124,36.277849 26.692543,35.845309 C 27.413443,35.845309 27.990165,35.701129 28.278525,35.701129 C 28.711065,35.701129 28.999425,35.412768 28.999425,35.124408 C 28.999425,34.980228 28.855245,34.691868 28.422705,34.403508 C 28.711065,33.250068 29.431967,32.384985 30.441226,31.519905 C 30.729586,31.231545 31.017947,31.087365 31.017947,30.943185 C 30.297047,29.933925 29.143604,29.213023 27.413444,28.924663 M 26.260003,30.799005 C 26.836723,30.654825 27.125084,30.943185 27.125084,31.519905 C 26.980904,32.673345 26.836723,33.682608 26.548363,34.403508 C 24.962383,34.691868 22.655497,35.124409 19.771898,35.412769 L 19.483537,31.519905 C 23.808937,31.087365 25.971643,30.799005 26.260003,30.799005"
         style="font-size:36.91011047px;font-style:normal;font-variant:normal;font-weight:normal;font-stretch:normal;fill:#ff0000;fill-opacity:1;stroke:none;stroke-width:1px;stroke-linecap:butt;stroke-linejoin:miter;stroke-opacity:1;font-family:'方正楷体';-inkscape-font-specification:'方正楷体'" />
    </g>
  </g>
</svg>
