<?xml version="1.0" encoding="UTF-8" standalone="no"?>
<!-- Created with Inkscape (http://www.inkscape.org/) -->
<svg
   xmlns:dc="http://purl.org/dc/elements/1.1/"
   xmlns:cc="http://creativecommons.org/ns#"
   xmlns:rdf="http://www.w3.org/1999/02/22-rdf-syntax-ns#"
   xmlns:svg="http://www.w3.org/2000/svg"
   xmlns="http://www.w3.org/2000/svg"
   xmlns:xlink="http://www.w3.org/1999/xlink"
   xmlns:sodipodi="http://sodipodi.sourceforge.net/DTD/sodipodi-0.dtd"
   xmlns:inkscape="http://www.inkscape.org/namespaces/inkscape"
   width="48"
   height="48"
   id="svg2"
   sodipodi:version="0.32"
   inkscape:version="0.46"
   version="1.0"
   sodipodi:docbase="/home/acevery/pictures"
   sodipodi:docname="zhengma.svg"
   inkscape:output_extension="org.inkscape.output.svg.inkscape"
   inkscape:export-filename="/home/acevery/pictures/zhengma.png"
   inkscape:export-xdpi="90"
   inkscape:export-ydpi="90">
  <defs
     id="defs4">
    <inkscape:perspective
       sodipodi:type="inkscape:persp3d"
       inkscape:vp_x="0 : 64 : 1"
       inkscape:vp_y="0 : 1000 : 0"
       inkscape:vp_z="128 : 64 : 1"
       inkscape:persp3d-origin="64 : 42.666667 : 1"
       id="perspective31" />
    <linearGradient
       id="linearGradient3161">
      <stop
         style="stop-color:#ffffff;stop-opacity:0.14163615;"
         offset="0"
         id="stop3163" />
      <stop
         id="stop4121"
         offset="0.5"
         style="stop-color:#ffffff;stop-opacity:0.64346766;" />
      <stop
         style="stop-color:#ffffff;stop-opacity:0;"
         offset="1"
         id="stop3165" />
    </linearGradient>
    <linearGradient
       id="linearGradient3153">
      <stop
         id="stop3155"
         offset="0"
         style="stop-color:#2a54f9;stop-opacity:1;" />
      <stop
         id="stop3157"
         offset="1"
         style="stop-color:#c01aff;stop-opacity:1;" />
    </linearGradient>
    <linearGradient
       id="linearGradient3143">
      <stop
         style="stop-color:#1841de;stop-opacity:1;"
         offset="0"
         id="stop3145" />
      <stop
         style="stop-color:#000000;stop-opacity:0;"
         offset="1"
         id="stop3147" />
    </linearGradient>
    <linearGradient
       inkscape:collect="always"
       xlink:href="#linearGradient3153"
       id="linearGradient3146"
       x1="22.150082"
       y1="31.192966"
       x2="87.511093"
       y2="76.649826"
       gradientUnits="userSpaceOnUse"
       gradientTransform="matrix(0.9427199,0,0,0.9427199,-4.5276466,-1.123433)" />
    <linearGradient
       inkscape:collect="always"
       xlink:href="#linearGradient3153"
       id="linearGradient3147"
       gradientUnits="userSpaceOnUse"
       gradientTransform="matrix(0.9427199,0,0,0.9427199,164.91672,70.198627)"
       x1="93.406822"
       y1="84.769463"
       x2="25.898127"
       y2="29.50251" />
    <linearGradient
       inkscape:collect="always"
       xlink:href="#linearGradient3153"
       id="linearGradient5093"
       gradientUnits="userSpaceOnUse"
       gradientTransform="matrix(0.9427199,0,0,0.9427199,-3.799051,-6.9733648e-3)"
       x1="93.406822"
       y1="84.769463"
       x2="25.898127"
       y2="29.50251" />
    <linearGradient
       inkscape:collect="always"
       xlink:href="#linearGradient3153"
       id="linearGradient5097"
       gradientUnits="userSpaceOnUse"
       gradientTransform="matrix(0.9427199,0,0,0.9427199,-3.0211351,0.7506412)"
       x1="93.406822"
       y1="84.769463"
       x2="25.898127"
       y2="29.50251" />
    <linearGradient
       inkscape:collect="always"
       xlink:href="#linearGradient3153"
       id="linearGradient5101"
       gradientUnits="userSpaceOnUse"
       gradientTransform="matrix(0.9427199,0,0,0.9427199,-2.1194105,1.825149)"
       x1="93.406822"
       y1="84.769463"
       x2="25.898127"
       y2="29.50251" />
    <linearGradient
       inkscape:collect="always"
       xlink:href="#linearGradient3153"
       id="linearGradient2405"
       gradientUnits="userSpaceOnUse"
       gradientTransform="matrix(0.9850093,0,0,0.9850093,-2.6751176,-0.5500965)"
       x1="22.150082"
       y1="31.192966"
       x2="87.511093"
       y2="76.649826" />
    <linearGradient
       inkscape:collect="always"
       xlink:href="#linearGradient3153"
       id="linearGradient2408"
       gradientUnits="userSpaceOnUse"
       gradientTransform="matrix(0.9850093,0,0,0.9850093,-1.913838,0.6164463)"
       x1="93.406822"
       y1="84.769463"
       x2="25.898127"
       y2="29.50251" />
    <linearGradient
       inkscape:collect="always"
       xlink:href="#linearGradient3153"
       id="linearGradient2411"
       gradientUnits="userSpaceOnUse"
       gradientTransform="matrix(0.9850093,0,0,0.9850093,-1.1010257,1.4080466)"
       x1="93.406822"
       y1="84.769463"
       x2="25.898127"
       y2="29.50251" />
    <linearGradient
       inkscape:collect="always"
       xlink:href="#linearGradient3153"
       id="linearGradient2414"
       gradientUnits="userSpaceOnUse"
       gradientTransform="matrix(0.9850093,0,0,0.9850093,-0.1588507,2.5307557)"
       x1="93.406822"
       y1="84.769463"
       x2="25.898127"
       y2="29.50251" />
    <linearGradient
       inkscape:collect="always"
       xlink:href="#linearGradient3153"
       id="linearGradient2412"
       gradientUnits="userSpaceOnUse"
       gradientTransform="matrix(0.9153874,0,0,0.9153874,8.2565721,6.643656)"
       x1="22.150082"
       y1="31.192966"
       x2="87.511093"
       y2="76.649826" />
    <linearGradient
       inkscape:collect="always"
       xlink:href="#linearGradient3153"
       id="linearGradient3207"
       gradientUnits="userSpaceOnUse"
       gradientTransform="matrix(0.9153874,0,0,0.9153874,8.2565721,6.643656)"
       x1="22.150082"
       y1="31.192966"
       x2="87.511093"
       y2="76.649826" />
  </defs>
  <sodipodi:namedview
     id="base"
     pagecolor="#ffffff"
     bordercolor="#666666"
     borderopacity="1.0"
     gridtolerance="10000"
     guidetolerance="10"
     objecttolerance="10"
     inkscape:pageopacity="0.0"
     inkscape:pageshadow="2"
     inkscape:zoom="1.979899"
     inkscape:cx="52.426589"
     inkscape:cy="0.273624"
     inkscape:document-units="px"
     inkscape:current-layer="layer1"
     width="128px"
     height="128px"
     showborder="true"
     inkscape:window-width="880"
     inkscape:window-height="737"
     inkscape:window-x="103"
     inkscape:window-y="31"
     showgrid="false" />
  <metadata
     id="metadata7">
    <rdf:RDF>
      <cc:Work
         rdf:about="">
        <dc:format>image/svg+xml</dc:format>
        <dc:type
           rdf:resource="http://purl.org/dc/dcmitype/StillImage" />
      </cc:Work>
    </rdf:RDF>
  </metadata>
  <g
     inkscape:label="Layer 1"
     inkscape:groupmode="layer"
     id="layer1">
    <g
       id="g3202"
       transform="matrix(0.3468143,0,0,0.3468143,0.9512651,0.943846)">
      <path
         id="path2410"
         d="M 56.647863,9.0630325 C 61.667833,8.0591271 66.353183,10.067137 70.703943,15.087069 C 68.361195,17.095171 65.516514,20.274518 62.169892,24.625124 C 59.157819,28.641227 56.647806,31.653242 54.639851,33.661177 C 52.966457,35.33459 51.962455,36.003924 51.627837,35.669179 C 51.293121,35.33459 51.627788,34.163255 52.631839,32.155165 C 57.317149,23.1192 58.655819,16.091165 56.647863,11.071045 C 56.313139,10.067137 56.313139,9.3977996 56.647863,9.0630325 M 29.037706,20.107098 C 33.388369,19.10318 37.571718,20.609188 41.587773,24.625124 C 43.930414,28.975895 43.763081,32.155242 41.085773,34.163177 C 36.400374,31.820575 32.384358,27.135219 29.037706,20.107098 M 106.84815,25.127126 C 114.88008,25.796546 118.89609,27.971892 118.89622,31.653164 C 118.56143,31.987909 118.05943,32.322576 117.39021,32.657165 C 112.0354,34.999923 105.17471,42.195287 96.80809,54.243285 C 101.49334,55.916679 107.85204,61.10404 115.88421,69.805377 C 117.55743,73.152097 118.22677,77.50279 117.89221,82.857454 C 116.8881,89.885514 115.38207,93.734198 113.37419,94.403523 C 112.37007,94.403532 111.36606,93.734198 110.36217,92.395508 C 106.34605,87.375501 100.99135,83.024808 94.298077,79.34343 C 92.289977,78.339457 91.453309,77.837457 91.788063,77.837427 C 91.787976,77.50279 92.959311,77.50279 95.302089,77.837427 C 104.33803,79.84547 109.19072,80.180127 109.86016,78.841429 C 110.19472,72.148096 104.84003,64.116054 93.796076,54.745295 C 98.146672,45.039967 101.49334,37.67726 103.83613,32.657165 C 98.481339,33.661254 92.457311,34.832589 85.764035,36.17118 C 85.763947,37.844594 85.763947,39.350606 85.764035,40.689206 C 88.106627,80.849471 88.106627,105.44759 85.764035,114.48363 C 84.425279,119.16899 83.0866,121.84634 81.74801,122.51568 C 80.074586,122.181 79.572586,119.50365 80.241997,114.48363 C 80.24192,110.13294 80.24192,105.94959 80.241997,101.93356 C 80.24192,89.885514 80.24192,76.666112 80.241997,62.275336 C 78.903251,45.207301 77.397239,36.171257 75.723971,35.167179 C 75.054559,33.828588 75.221893,32.657243 76.225972,31.653164 C 76.560572,30.983907 77.89924,31.151241 80.241997,32.155165 C 82.5846,32.824576 84.425279,33.159243 85.764035,33.159175 C 95.134658,31.820575 101.66068,29.477895 105.34214,26.131133 C 106.01136,25.461877 106.51338,25.127209 106.84815,25.127126 M 62.169892,36.17118 C 65.851182,36.171257 68.361195,36.673259 69.699932,37.677192 C 70.369208,39.015939 69.03053,40.187274 65.683916,41.191217 C 63.006511,42.195287 57.81915,43.533955 50.121825,45.207232 C 52.799123,47.884648 53.635792,51.063995 52.631839,54.745295 C 52.63179,55.414679 52.63179,56.084013 52.631839,56.753299 C 68.361195,53.071999 76.058571,52.904675 75.723971,56.251298 C 75.723903,57.255358 71.540544,58.594026 63.173903,60.267324 C 58.488485,61.271373 54.807136,61.940707 52.129838,62.275336 C 51.125778,66.2914 50.121776,69.470749 49.117823,71.813389 C 58.823152,74.825443 64.512513,77.670123 66.185917,80.347441 C 69.532531,85.367488 69.365197,89.048845 65.683916,91.391506 C 64.010513,91.391516 58.321152,85.367488 48.615813,73.319401 C 43.26108,86.706165 34.727038,96.411545 23.013667,102.43557 C 20.001634,103.77425 18.328299,104.27625 17.993641,103.94157 C 17.993622,103.60691 19.3323,102.26824 22.009666,99.925553 C 34.057704,89.550847 41.587734,77.335456 44.599797,63.279338 C 38.57572,64.952722 32.551691,66.793401 26.527692,68.801375 C 23.180982,70.140083 21.172979,70.642083 20.503654,70.307378 C 18.160956,69.972749 15.818285,68.801414 13.475615,66.793362 C 11.80226,65.120065 11.467592,63.781387 12.471613,62.777337 C 12.471604,62.777385 12.973604,62.777385 13.977616,62.777337 C 20.670969,63.112052 31.213023,61.60604 45.603799,58.259311 C 45.60376,57.255358 45.60376,56.920691 45.603799,57.255309 C 46.273094,50.896662 45.938427,47.382647 44.599797,46.713245 C 37.571718,47.717314 32.049691,47.884648 28.033694,47.215245 C 24.01765,45.876635 24.352326,44.537966 29.037706,43.19922 C 37.739052,42.195287 46.105761,40.521941 54.13785,38.179193 C 57.484483,37.17526 60.16183,36.505925 62.169892,36.17118"
         style="font-size:38.99767685px;font-style:normal;font-weight:normal;fill:#ffffff;fill-opacity:1;stroke:none;stroke-width:1px;stroke-linecap:butt;stroke-linejoin:miter;stroke-opacity:1;font-family:FZXingKai-S04" />
      <path
         sodipodi:nodetypes="cccssccccccccccccccccccccccccccscccccccccccccccccccccccccccscccccccc"
         id="text2168"
         d="M 58.780312,11.673515 C 63.800282,10.669609 69.622054,12.425079 72.836392,17.697549 C 70.493642,19.705651 67.648962,22.884999 64.302342,27.235604 C 61.290272,31.251706 59.576164,32.63754 57.255714,34.37762 C 55.362369,35.797419 52.074597,35.962757 51.739977,35.628017 C 51.405257,35.293421 53.760232,35.132234 54.764282,33.124148 C 59.449592,24.088183 60.788262,18.701646 58.780312,13.681525 C 58.445592,12.677617 58.445592,12.008282 58.780312,11.673515 M 31.170152,22.717578 C 35.520812,21.71366 41.400591,22.862525 43.720222,27.235604 C 46.337064,31.943516 45.538389,33.247866 43.664651,36.327229 C 39.989404,33.605818 34.516812,29.745699 31.170152,22.717578 M 108.98058,27.737606 C 117.0125,28.407027 121.02852,30.58237 121.02865,34.263644 C 120.69385,34.598388 120.19185,34.933057 119.52263,35.26765 C 114.16783,37.610403 107.30716,44.805771 98.940538,56.853774 C 103.62579,58.527168 109.57411,62.98848 117.60626,71.689816 C 119.27948,75.036537 120.35919,80.113271 120.02463,85.467937 C 119.02051,92.496006 117.51449,96.344686 115.50663,97.014006 C 114.50251,97.014026 113.49849,96.344686 112.4946,95.005996 C 108.47849,89.985985 101.98738,83.109916 95.294097,79.428537 C 93.286,78.424561 92.44933,77.922559 92.78409,77.922528 C 92.784,77.58789 95.091762,80.113271 97.434529,80.447909 C 106.47047,82.45595 111.32315,82.790616 111.9926,81.451915 C 112.32715,74.75858 106.08859,63.443546 95.044636,54.072781 C 99.395247,44.367455 103.62579,40.287748 105.96858,35.26765 C 100.61379,36.27173 94.589762,37.443068 87.896482,38.78167 C 87.896392,40.455084 87.896392,41.961091 87.896482,43.299696 C 90.239072,83.459954 90.239072,108.05807 87.896482,117.09412 C 86.557722,121.77948 83.766958,124.14114 83.249107,124.14758 C 82.775242,124.12858 78.863978,121.35654 81.048617,119.6195 C 81.048547,115.2688 82.374372,108.56007 82.374442,104.54404 C 82.374372,92.496006 82.374372,79.276601 82.374442,64.88582 C 81.035692,47.817785 79.529692,38.781741 77.856422,37.777664 C 77.187012,36.439064 77.354342,35.267725 78.358422,34.263644 C 78.693022,33.594384 79.968557,33.446045 82.311307,34.449973 C 84.653907,35.119386 86.494587,35.454054 87.833347,35.45398 C 97.203964,34.115381 103.79313,32.088377 107.47458,28.741613 C 108.1438,28.072357 108.64582,27.737689 108.98058,27.737606 M 64.302342,38.78167 C 68.488708,36.887705 69.039032,36.178663 71.832382,40.287679 C 72.501652,41.626422 71.162982,42.797762 67.816362,43.801699 C 65.138952,44.805771 59.951592,46.144444 52.254272,47.817723 C 54.931572,50.495131 55.768242,53.674479 54.764282,57.355777 C 54.764242,58.025167 54.764242,58.694503 54.764282,59.363789 C 72.776229,52.22278 74.996532,52.673332 77.477615,58.546113 C 77.666948,59.865843 73.672992,61.204515 65.306352,62.877809 C 60.620932,63.881861 56.939582,64.551197 54.262282,64.88582 C 53.258232,68.901885 52.254222,72.081233 51.250262,74.423875 C 59.061566,73.647854 66.8975,79.77553 68.5709,82.452848 C 71.91752,87.472899 72.128997,91.406793 68.447707,93.749458 C 66.774307,93.749468 60.453602,87.977975 50.748262,75.929883 C 45.393522,89.316649 36.859482,99.022026 25.146112,105.04604 C 22.275671,105.75338 18.404382,104.35594 18.069722,104.02126 C 18.069712,103.6866 21.054368,103.99484 23.731738,101.65216 C 35.779778,91.277453 43.720182,79.945937 46.732242,65.889825 C 40.708172,67.563212 34.684142,69.403887 28.660132,71.411858 C 25.313432,72.75057 23.305422,73.252573 22.636102,72.917866 C 20.293402,72.583236 17.950732,71.411896 15.608062,69.403846 C 11.345426,65.051975 12.350042,65.141872 14.604052,65.387823 C 14.604098,65.387828 15.106052,65.387868 16.110062,65.387823 C 22.803422,65.722536 33.345472,64.216528 47.736242,60.869798 C 47.736202,59.865843 47.736202,59.531174 47.736242,59.865792 C 48.405542,53.507145 48.070872,49.993128 46.732242,49.32373 C 39.704162,50.327797 34.560949,51.000207 30.166142,49.825734 C 22.867106,44.69905 25.095812,44.244258 31.170152,45.80971 C 39.871502,44.805771 48.238202,43.13243 56.270292,40.789681 C 59.616932,39.785747 62.294272,39.11641 64.302342,38.78167"
         style="font-size:38.99767685px;font-style:normal;font-weight:normal;fill:#240077;fill-opacity:1;stroke:none;stroke-width:1px;stroke-linecap:butt;stroke-linejoin:miter;stroke-opacity:1;font-family:FZXingKai-S04" />
      <path
         id="path2420"
         d="M 56.62923,9.110924 C 61.6492,8.107018 66.33456,10.115027 70.68531,15.13496 C 68.34257,17.143062 65.49789,20.32241 62.15126,24.673015 C 59.13919,28.689117 56.62918,31.70113 54.62122,33.709067 C 52.94783,35.382482 51.94382,36.051818 51.6092,35.717078 C 51.27449,35.382482 51.60916,34.211143 52.61321,32.203057 C 57.29852,23.167092 58.63719,16.139057 56.62923,11.118936 C 56.29451,10.115027 56.29451,9.445691 56.62923,9.110924 M 29.01907,20.154989 C 33.36973,19.151071 37.55309,20.657079 41.56915,24.673015 C 43.91178,29.023784 43.74445,32.203134 41.06714,34.211069 C 36.38175,31.868465 32.36573,27.18311 29.01907,20.154989 M 106.82951,25.175017 C 114.86143,25.844438 118.87745,28.019781 118.87758,31.701055 C 118.54278,32.035799 118.04078,32.370468 117.37156,32.705061 C 112.01676,35.047814 105.15609,42.243182 96.789457,54.291185 C 101.47471,55.964579 107.83341,61.151938 115.86556,69.853274 C 117.53878,73.199995 118.20812,77.550682 117.87356,82.905348 C 116.86944,89.933408 115.36342,93.782096 113.35556,94.451415 C 112.35144,94.451425 111.34742,93.782096 110.34353,92.443405 C 106.32742,87.423396 100.97272,83.072708 94.279447,79.391329 C 92.271347,78.387353 91.434677,77.885351 91.769427,77.88532 C 91.769347,77.550682 92.940677,77.550682 95.283457,77.88532 C 104.3194,79.893361 109.17208,80.228027 109.84153,78.889326 C 110.17608,72.195991 104.8214,64.163953 93.777447,54.793188 C 98.128037,45.087862 101.47471,37.725159 103.81751,32.705061 C 98.462707,33.709141 92.438677,34.880479 85.745397,36.219081 C 85.745317,37.892495 85.745317,39.398502 85.745397,40.737107 C 88.087987,80.897365 88.087987,105.49549 85.745397,114.53155 C 84.406637,119.21691 83.067967,121.89425 81.72938,122.5636 C 80.05596,122.22892 79.55395,119.55158 80.22337,114.53155 C 80.22329,110.18085 80.22329,105.99749 80.22337,101.98147 C 80.22329,89.933408 80.22329,76.714012 80.22337,62.323231 C 78.88462,45.255196 77.37861,36.219152 75.70534,35.215075 C 75.03593,33.876475 75.20327,32.705136 76.20735,31.701055 C 76.54194,31.031795 77.88061,31.199129 80.22337,32.203057 C 82.565967,32.87247 84.406637,33.207138 85.745397,33.207064 C 95.116027,31.868465 101.64206,29.525788 105.32351,26.179024 C 105.99273,25.509768 106.49475,25.1751 106.82951,25.175017 M 62.15126,36.219081 C 65.83256,36.219152 68.34257,36.721155 69.68131,37.72509 C 70.35058,39.063833 69.01191,40.235173 65.66528,41.23911 C 62.98788,42.243182 57.80052,43.581855 50.10319,45.255134 C 52.78049,47.932542 53.61716,51.11189 52.61321,54.793188 C 52.61316,55.462578 52.61316,56.131914 52.61321,56.8012 C 68.34257,53.1199 76.03994,52.952566 75.70534,56.299197 C 75.70527,57.303254 71.52192,58.641926 63.15527,60.31522 C 58.46986,61.319272 54.7885,61.988608 52.11121,62.323231 C 51.10715,66.339296 50.10315,69.518644 49.09919,71.861286 C 58.80452,74.873337 64.49388,77.718017 66.16729,80.395335 C 69.51391,85.415386 69.34657,89.096738 65.66528,91.439399 C 63.99188,91.439415 58.30252,85.415386 48.59719,73.367294 C 43.24245,86.75406 34.70841,96.45943 22.99504,102.48347 C 19.983,103.82215 18.30966,104.32415 17.97501,103.98947 C 17.97499,103.65481 19.31367,102.31614 21.99103,99.97345 C 34.03907,89.59874 41.56911,77.383348 44.58116,63.327236 C 38.55709,65.000623 32.53306,66.841298 26.50906,68.849269 C 23.16235,70.187981 21.15434,70.689984 20.48502,70.355277 C 18.14233,70.020647 15.79965,68.849307 13.45698,66.841257 C 11.78363,65.167957 11.44896,63.829283 12.45297,62.825234 C 12.45297,62.825279 12.95497,62.825279 13.95899,62.825234 C 20.65234,63.159947 31.19439,61.653939 45.58517,58.307209 C 45.58513,57.303254 45.58513,56.968585 45.58517,57.303203 C 46.25446,50.944556 45.9198,47.430539 44.58116,46.761141 C 37.55309,47.765208 32.03106,47.932542 28.01507,47.263145 C 23.99902,45.924533 24.33369,44.585858 29.01907,43.247121 C 37.72042,42.243182 46.08713,40.569841 54.11922,38.227092 C 57.46585,37.223158 60.1432,36.553821 62.15126,36.219081"
         style="font-size:38.99767685px;font-style:normal;font-weight:normal;fill:url(#linearGradient3207);fill-opacity:1;stroke:none;stroke-width:0.92931849px;stroke-linecap:butt;stroke-linejoin:miter;stroke-opacity:1;font-family:FZXingKai-S04" />
    </g>
  </g>
</svg>
