<?xml version="1.0" encoding="UTF-8" standalone="no"?>
<!-- Created with Inkscape (http://www.inkscape.org/) -->
<svg
   xmlns:dc="http://purl.org/dc/elements/1.1/"
   xmlns:cc="http://creativecommons.org/ns#"
   xmlns:rdf="http://www.w3.org/1999/02/22-rdf-syntax-ns#"
   xmlns:svg="http://www.w3.org/2000/svg"
   xmlns="http://www.w3.org/2000/svg"
   xmlns:xlink="http://www.w3.org/1999/xlink"
   xmlns:sodipodi="http://sodipodi.sourceforge.net/DTD/sodipodi-0.dtd"
   xmlns:inkscape="http://www.inkscape.org/namespaces/inkscape"
   width="48"
   height="48"
   id="svg2"
   sodipodi:version="0.32"
   inkscape:version="0.46"
   version="1.0"
   sodipodi:docname="ibus-table.svg"
   inkscape:output_extension="org.inkscape.output.svg.inkscape">
  <defs
     id="defs4">
    <linearGradient
       id="linearGradient3172">
      <stop
         style="stop-color:#ffffff;stop-opacity:1;"
         offset="0"
         id="stop3174" />
      <stop
         id="stop3169"
         offset="0.5"
         style="stop-color:#ebecf0;stop-opacity:0.94509804;" />
      <stop
         style="stop-color:#ffffff;stop-opacity:1;"
         offset="1"
         id="stop3176" />
    </linearGradient>
    <linearGradient
       id="linearGradient3164">
      <stop
         style="stop-color:#010eb1;stop-opacity:0.09615385;"
         offset="0"
         id="stop3166" />
      <stop
         style="stop-color:#010eb1;stop-opacity:0.33333334;"
         offset="1"
         id="stop3168" />
    </linearGradient>
    <inkscape:perspective
       sodipodi:type="inkscape:persp3d"
       inkscape:vp_x="0 : 526.18109 : 1"
       inkscape:vp_y="0 : 1000 : 0"
       inkscape:vp_z="744.09448 : 526.18109 : 1"
       inkscape:persp3d-origin="372.04724 : 350.78739 : 1"
       id="perspective10" />
    <linearGradient
       inkscape:collect="always"
       xlink:href="#linearGradient3172"
       id="linearGradient3178"
       x1="5.1114674"
       y1="24.135143"
       x2="45.143622"
       y2="24.135143"
       gradientUnits="userSpaceOnUse" />
    <linearGradient
       inkscape:collect="always"
       xlink:href="#linearGradient3172"
       id="linearGradient3167"
       x1="3.4865167"
       y1="22.483055"
       x2="43.518669"
       y2="22.483055"
       gradientUnits="userSpaceOnUse"
       gradientTransform="matrix(0.9274684,0,0,0.9274685,1.7977084,1.6470837)" />
  </defs>
  <sodipodi:namedview
     id="base"
     pagecolor="#ffffff"
     bordercolor="#666666"
     borderopacity="1.0"
     gridtolerance="10000"
     guidetolerance="10"
     objecttolerance="10"
     inkscape:pageopacity="0.0"
     inkscape:pageshadow="2"
     inkscape:zoom="3.959798"
     inkscape:cx="33.347244"
     inkscape:cy="2.7426741"
     inkscape:document-units="px"
     inkscape:current-layer="layer1"
     showgrid="false"
     inkscape:window-width="684"
     inkscape:window-height="737"
     inkscape:window-x="-4"
     inkscape:window-y="0" />
  <metadata
     id="metadata7">
    <rdf:RDF>
      <cc:Work
         rdf:about="">
        <dc:format>image/svg+xml</dc:format>
        <dc:type
           rdf:resource="http://purl.org/dc/dcmitype/StillImage" />
      </cc:Work>
    </rdf:RDF>
  </metadata>
  <g
     inkscape:label="Layer 1"
     inkscape:groupmode="layer"
     id="layer1">
    <rect
       style="opacity:1;color:#000000;fill:#ffffff;fill-opacity:1;fill-rule:nonzero;stroke:none;stroke-width:2.45357633000000019;stroke-linecap:butt;stroke-linejoin:miter;marker:none;marker-start:none;marker-mid:none;marker-end:none;stroke-miterlimit:4;stroke-dasharray:none;stroke-dashoffset:0;stroke-opacity:0.73725492000000004;visibility:visible;display:inline;overflow:visible;enable-background:accumulate"
       id="rect2393"
       width="43.993137"
       height="43.993137"
       x="1.9945551"
       y="2.0123093"
       rx="6.1198311"
       ry="6.3010397" />
    <rect
       style="opacity:1;color:#000000;fill:#276bf2;fill-opacity:0.78431374;fill-rule:nonzero;stroke:#80bae6;stroke-width:2.45357633000000019;stroke-linecap:butt;stroke-linejoin:miter;marker:none;marker-start:none;marker-mid:none;marker-end:none;stroke-miterlimit:4;stroke-dasharray:none;stroke-dashoffset:0;stroke-opacity:0.73725492000000004;visibility:visible;display:inline;overflow:visible;enable-background:accumulate"
       id="rect2383"
       width="43.993137"
       height="43.993137"
       x="1.9945551"
       y="2.0123093"
       rx="6.1198311"
       ry="6.3010397" />
    <path
       transform="scale(0.9831997,1.0170874)"
       style="font-size:36.59557343px;font-style:normal;font-variant:normal;font-weight:normal;font-stretch:normal;fill:#0c1584;fill-opacity:0.83057849;stroke:none;stroke-width:1px;stroke-linecap:butt;stroke-linejoin:miter;stroke-opacity:1;font-family:'方正行楷_GBK';-inkscape-font-specification:'方正行楷_GBK'"
       d="M 36.410378,6.883299 C 37.601606,7.4789612 38.554615,8.1341547 39.269407,8.8488817 C 39.984128,9.5636679 40.103255,10.337988 39.626786,11.171843 C 38.673741,13.31614 37.958985,15.817788 37.482514,18.676795 C 37.005976,20.821085 36.291219,22.191035 35.338242,22.786649 C 39.150246,22.191035 41.711457,22.48885 43.021883,23.680096 C 43.14097,24.037489 43.438785,24.454431 43.91533,24.930921 C 44.391794,25.407439 44.749173,25.764818 44.987466,26.003057 C 45.463929,26.956079 45.523492,27.849525 45.166155,28.683397 C 44.927862,29.159912 44.51092,30.11292 43.91533,31.542427 C 43.557912,32.614569 43.260096,33.448451 43.021883,34.044077 C 42.068835,36.54573 40.698885,38.332621 38.912029,39.404757 C 38.078111,40.000387 37.244228,40.000387 36.410378,39.404757 C 34.861706,38.809126 32.776999,37.498739 30.156252,35.473592 C 29.917973,35.235343 29.739284,35.056654 29.620184,34.937524 C 29.143653,34.461023 28.964964,34.222771 29.084116,34.222767 C 29.08409,34.103645 29.381905,34.163208 29.977562,34.401456 C 31.764427,35.473595 33.313067,36.069225 34.623485,36.188349 C 36.410345,36.664856 37.720733,36.247915 38.55465,34.937524 C 40.103255,32.197627 41.056263,29.51729 41.413679,26.896504 C 41.413642,25.586129 40.818011,24.871372 39.626786,24.752232 C 36.88685,24.63312 33.432193,25.824381 29.262805,28.326019 C 28.190644,29.159912 27.475888,28.862096 27.118533,27.432572 C 26.761131,26.479574 26.761131,25.824381 27.118533,25.466989 C 28.190644,22.965354 28.667149,20.34458 28.548048,17.604659 C 28.428897,17.009049 28.548023,16.532545 28.905426,16.175144 C 29.262779,16.05604 29.739284,16.175167 30.334941,16.532523 C 31.407049,17.247301 31.823991,18.617252 31.585766,20.642377 C 32.300495,21.357152 32.896125,21.178463 33.37266,20.10631 C 34.087386,18.081184 34.563891,15.519973 34.802174,12.422668 C 34.802143,12.065316 34.74258,11.886627 34.623485,11.8866 C 34.504328,11.886627 34.266076,12.005753 33.908727,12.243979 C 31.526175,14.150023 29.381905,14.150023 27.475912,12.243979 C 27.11851,12.005753 26.93982,11.767501 26.939844,11.529222 C 26.93982,11.290996 27.178073,11.112307 27.654601,10.993154 C 29.917973,10.516677 32.121806,9.2658527 34.266106,7.2406777 C 34.74258,6.6450784 35.457337,6.5259523 36.410378,6.883299 M 20.685717,7.5980563 C 22.115213,7.1215829 23.544726,7.8959025 24.974261,9.9210176 C 25.56987,10.993181 25.391181,11.827064 24.438193,12.422668 C 21.817398,14.09046 19.31575,17.009049 16.933241,21.178445 C 18.362741,20.582832 19.434876,20.046765 20.149649,19.570242 C 21.46002,18.498126 23.008659,18.736378 24.795572,20.284999 C 25.391181,21.238026 25.391181,22.131472 24.795572,22.965339 C 24.19992,23.799237 23.663853,24.752246 23.187368,25.824368 C 23.068222,26.181759 22.889533,26.5987 22.6513,27.075193 C 22.532155,27.313457 22.472592,27.492146 22.47261,27.611261 C 22.949096,29.279038 21.996087,30.053357 19.613581,29.934223 C 19.256187,29.815105 18.54143,29.874668 17.469309,30.112912 C 17.469295,30.351173 17.469295,30.648988 17.469309,31.006359 C 17.588421,31.363744 17.707548,31.601997 17.826688,31.721116 C 17.350169,33.150636 16.694976,33.508014 15.861105,32.793252 C 14.43158,31.244618 13.65726,28.921659 13.538144,25.824368 C 10.91736,28.802533 8.8326529,30.946803 7.2840172,32.257184 C 6.8075092,32.733695 6.4501309,32.971947 6.2118812,32.971941 C 5.9736265,32.971947 5.8545004,32.674132 5.8545026,32.078495 C 5.7353743,31.840249 5.7353743,31.363744 5.8545026,30.64898 C 5.8545004,30.053357 6.0331896,29.219475 6.3905706,28.147329 C 6.6288201,27.789961 6.7479462,27.849525 6.7479492,28.326019 C 6.7479462,28.683407 6.7479462,28.981222 6.7479492,29.219465 C 6.7479462,29.457727 6.7479462,29.636416 6.7479492,29.755533 C 6.8670723,29.755542 7.0457614,29.636416 7.2840172,29.398155 C 7.6413919,28.802533 8.4157116,27.730398 9.6069785,26.181747 C 10.798234,24.63312 11.632116,23.501422 12.108629,22.786649 C 11.989495,22.786665 11.691679,22.667539 11.215182,22.429271 C 10.738671,22.310161 10.500418,22.191035 10.500425,22.071892 C 10.14304,22.071909 9.9643509,21.952782 9.9643572,21.714513 C 9.9643509,21.595404 10.14304,21.416715 10.500425,21.178445 C 11.334301,20.821085 12.346873,20.701958 13.538144,20.821067 C 15.086773,18.20031 16.456723,15.996477 17.647998,14.209562 C 17.767111,13.971334 17.826674,13.792645 17.826688,13.673494 C 17.826674,13.554392 17.707548,13.435266 17.469309,13.316115 C 15.682404,12.72051 14.252891,11.588812 13.180765,9.9210176 C 12.942503,9.682794 12.88294,9.4445418 13.002076,9.2062603 C 13.121193,8.9680374 13.359445,8.9084744 13.716833,9.027571 C 15.02721,9.9806093 17.350169,9.5041049 20.685717,7.5980563 M 31.585766,21.178445 C 31.347486,21.654967 31.287923,21.833656 31.407077,21.714513 C 31.049671,22.667539 30.811419,23.322733 30.69232,23.680096 C 30.573166,24.037489 30.573166,24.275741 30.69232,24.394853 C 30.692293,24.513994 30.870982,24.454431 31.228388,24.216164 C 31.347486,24.216178 31.645301,24.097052 32.121834,23.858785 C 32.479184,23.739674 32.776999,23.620548 33.015281,23.501407 C 32.181369,22.667539 31.704864,21.893219 31.585766,21.178445 M 19.613581,23.858785 C 19.017935,23.977926 18.243615,24.156615 17.29062,24.394853 C 17.052354,24.513994 16.873665,24.573557 16.754552,24.573543 C 16.754539,25.764818 16.873665,26.77739 17.11193,27.611261 C 17.231043,27.611272 17.469295,27.551709 17.826688,27.432572 C 18.54143,27.075205 19.077498,26.836953 19.434892,26.717815 C 19.673128,26.122196 19.91138,25.407439 20.149649,24.573543 C 20.268759,24.097052 20.09007,23.8588 19.613581,23.858785 M 32.657902,29.219465 C 34.802143,28.623844 36.11253,29.279038 36.589067,31.185048 C 36.708161,32.376316 36.291219,32.852821 35.338242,32.614563 C 32.00268,32.376316 29.203216,32.793258 26.939844,33.865388 C 26.701568,33.984519 26.34419,34.163208 25.867708,34.401456 C 24.676424,34.877964 23.60429,35.17578 22.6513,35.294903 C 22.05565,35.533158 21.757835,35.294906 21.757853,34.580145 C 21.638709,33.269762 21.817398,32.197627 22.293921,31.363737 C 22.413029,31.125492 22.591718,30.946803 22.829989,30.827669 C 23.068222,30.827677 23.246911,30.946803 23.366057,31.185048 C 23.485163,31.780686 23.842542,31.959375 24.438193,31.721116 C 24.557298,31.601997 25.808122,31.244618 28.190669,30.64898 C 28.786275,30.529862 28.964964,30.470299 28.726737,30.470291 C 30.394477,29.993794 31.704864,29.576853 32.657902,29.219465"
       id="text3160" />
    <path
       transform="scale(0.9831997,1.0170874)"
       style="font-size:33.94611359px;font-style:normal;font-variant:normal;font-weight:normal;font-stretch:normal;fill:url(#linearGradient3167);fill-opacity:1;stroke:none;stroke-width:1px;stroke-linecap:butt;stroke-linejoin:miter;stroke-opacity:1;font-family:'方正行楷_GBK';-inkscape-font-specification:'方正行楷_GBK'"
       d="M 33.540773,7.2501787 C 34.645758,7.8027158 35.529771,8.4104744 36.192813,9.0734562 C 36.855789,9.7364931 36.966291,10.454753 36.524318,11.228239 C 35.640272,13.217292 34.977263,15.537825 34.535288,18.189844 C 34.09325,20.17889 33.430241,21.449658 32.546258,22.002151 C 36.082278,21.449658 38.458062,21.725912 39.673615,22.830914 C 39.78408,23.162432 40.060334,23.549188 40.502378,23.991181 C 40.944347,24.4332 41.275851,24.764705 41.496893,24.985696 C 41.938861,25.86972 41.994112,26.698482 41.662645,27.471984 C 41.441604,27.913999 41.054848,28.798012 40.502378,30.124024 C 40.170836,31.118544 39.894582,31.892055 39.673615,32.444559 C 38.789566,34.765096 37.518799,36.422619 35.861308,37.417134 C 35.087764,37.969641 34.314253,37.969641 33.540773,37.417134 C 32.104222,36.864625 30.170445,35.649108 27.739435,33.770579 C 27.518408,33.549578 27.352655,33.383826 27.242178,33.273321 C 26.800148,32.831318 26.634395,32.610315 26.74492,32.610311 C 26.744897,32.499814 27.021151,32.555064 27.573683,32.776064 C 29.231182,33.770582 30.667702,34.323089 31.883248,34.433589 C 33.540742,34.875597 34.75626,34.488842 35.529803,33.273321 C 36.966291,30.731789 37.850303,28.245504 38.181843,25.814459 C 38.181808,24.598952 37.6293,23.935943 36.524318,23.825429 C 33.982749,23.71494 30.778204,24.819956 26.910673,27.140479 C 25.916135,27.913999 25.253126,27.637745 24.921643,26.311716 C 24.590116,25.427714 24.590116,24.819956 24.921643,24.488439 C 25.916135,22.167918 26.358141,19.736884 26.247663,17.195329 C 26.137138,16.64284 26.24764,16.200834 26.579168,15.869309 C 26.910649,15.758828 27.352655,15.869329 27.905188,16.200814 C 28.899677,16.863843 29.286433,18.134611 29.065455,20.013121 C 29.728439,20.676147 30.280947,20.510395 30.72298,19.515864 C 31.385962,17.637354 31.827968,15.261571 32.049,12.388506 C 32.048971,12.057026 31.993721,11.891273 31.883248,11.891249 C 31.772718,11.891273 31.551714,12.001775 31.220238,12.222754 C 29.010179,13.990803 27.021151,13.990803 25.253148,12.222754 C 24.921621,12.001775 24.755869,11.780772 24.75589,11.559744 C 24.755869,11.338766 24.976872,11.173013 25.4189,11.062486 C 27.518408,10.620506 29.562686,9.4602392 31.551743,7.5816837 C 31.993721,7.0292049 32.65673,6.9187034 33.540773,7.2501787 M 18.954553,7.9131887 C 20.280556,7.4712112 21.606574,8.1894713 22.932613,10.067971 C 23.485101,11.062512 23.319349,11.836023 22.435355,12.388506 C 20.004302,13.935552 17.683769,16.64284 15.47375,20.510379 C 16.799757,19.957887 17.794271,19.46063 18.457295,19.018606 C 19.672797,18.02411 21.109317,18.245113 22.76686,19.681616 C 23.319349,20.565646 23.319349,21.394407 22.76686,22.167904 C 22.214333,22.941429 21.717076,23.825442 21.275088,24.819944 C 21.164568,25.15146 20.998816,25.538216 20.77783,25.980211 C 20.667311,26.201225 20.61206,26.366977 20.612078,26.477469 C 21.054067,28.024501 20.170054,28.742761 17.960038,28.632251 C 17.628518,28.521758 16.965509,28.577008 15.971008,28.798004 C 15.970995,29.019015 15.970995,29.295269 15.971008,29.626766 C 16.081497,29.958278 16.191998,30.179281 16.302513,30.289776 C 15.860493,31.615801 15.252735,31.947306 14.479235,31.284291 C 13.153205,29.847776 12.434945,27.692996 12.324453,24.819944 C 9.8934094,27.582494 7.9596322,29.571522 6.5231153,30.787034 C 6.0811057,31.229046 5.7496011,31.450049 5.5286003,31.450044 C 5.3075948,31.450049 5.1970933,31.173795 5.1970953,30.621281 C 5.0865917,30.400284 5.0865917,29.958278 5.1970953,29.295261 C 5.1970933,28.742761 5.3628456,27.96925 5.6943528,26.974726 C 5.9153534,26.643231 6.025855,26.698482 6.0258578,27.140479 C 6.025855,27.471993 6.025855,27.748247 6.0258578,27.969241 C 6.025855,28.190253 6.025855,28.356005 6.0258578,28.466499 C 6.1363565,28.466507 6.3021088,28.356005 6.5231153,28.134994 C 6.8546166,27.582494 7.5728767,26.58798 8.6778978,25.151449 C 9.7829079,23.71494 10.556419,22.665175 10.998433,22.002151 C 10.887923,22.002166 10.61167,21.891664 10.16967,21.670646 C 9.7276571,21.56016 9.506654,21.449658 9.5066603,21.339141 C 9.1751493,21.339156 9.009397,21.228655 9.0094028,21.007636 C 9.009397,20.89715 9.1751493,20.731398 9.5066603,20.510379 C 10.280165,20.17889 11.219428,20.068389 12.324453,20.178874 C 13.760964,17.747856 15.031732,15.703577 16.13676,14.046031 C 16.247249,13.825051 16.3025,13.659298 16.302513,13.548774 C 16.3025,13.438295 16.191998,13.327794 15.971008,13.217269 C 14.313472,12.664784 12.987453,11.61502 11.992948,10.067971 C 11.771936,9.8469946 11.716685,9.6259915 11.827195,9.4049612 C 11.937688,9.1839853 12.158691,9.1287345 12.490205,9.2392087 C 13.705713,10.123249 15.860493,9.6812423 18.954553,7.9131887 M 29.065455,20.510379 C 28.844426,20.952401 28.789176,21.118153 28.899703,21.007636 C 28.568172,21.891664 28.347169,22.499423 28.236693,22.830914 C 28.126166,23.162432 28.126166,23.383435 28.236693,23.493924 C 28.236668,23.604438 28.40242,23.549188 28.73395,23.328171 C 28.844426,23.328185 29.12068,23.217683 29.562713,22.996666 C 29.894191,22.886178 30.170445,22.775677 30.391475,22.665161 C 29.617937,21.891664 29.175931,21.173404 29.065455,20.510379 M 17.960038,22.996666 C 17.407515,23.107181 16.689255,23.272934 15.805255,23.493924 C 15.58424,23.604438 15.418487,23.659689 15.307998,23.659676 C 15.307986,24.764705 15.418487,25.703968 15.639503,26.477469 C 15.749992,26.477479 15.970995,26.422228 16.302513,26.311716 C 16.965509,25.980222 17.462766,25.759219 17.794285,25.648706 C 18.015274,25.096209 18.236277,24.4332 18.457295,23.659676 C 18.567782,23.217683 18.402029,22.99668 17.960038,22.996666 M 30.05997,27.969241 C 32.048971,27.416742 33.264489,28.024501 33.706525,29.792519 C 33.816996,30.897541 33.430241,31.339547 32.546258,31.118539 C 29.452185,30.897541 26.855398,31.284297 24.75589,32.278806 C 24.534866,32.389312 24.203361,32.555064 23.761375,32.776064 C 22.656339,33.218074 21.661825,33.494328 20.77783,33.604826 C 20.225305,33.825832 19.949051,33.604829 19.949068,32.941816 C 19.83855,31.726303 20.004302,30.731789 20.446325,29.958271 C 20.55681,29.737275 20.722562,29.571522 20.943583,29.461014 C 21.164568,29.461021 21.330321,29.571522 21.44084,29.792519 C 21.551324,30.345033 21.882828,30.510786 22.435355,30.289776 C 22.545838,30.179281 23.706104,29.847776 25.916158,29.295261 C 26.468643,29.184767 26.634395,29.129516 26.413415,29.129509 C 27.960414,28.68751 29.175931,28.300755 30.05997,27.969241"
       id="text3155" />
  </g>
</svg>
