<?xml version="1.0" encoding="UTF-8" standalone="no"?>
<!-- Created with Inkscape (http://www.inkscape.org/) -->
<svg
   xmlns:dc="http://purl.org/dc/elements/1.1/"
   xmlns:cc="http://creativecommons.org/ns#"
   xmlns:rdf="http://www.w3.org/1999/02/22-rdf-syntax-ns#"
   xmlns:svg="http://www.w3.org/2000/svg"
   xmlns="http://www.w3.org/2000/svg"
   xmlns:xlink="http://www.w3.org/1999/xlink"
   xmlns:sodipodi="http://sodipodi.sourceforge.net/DTD/sodipodi-0.dtd"
   xmlns:inkscape="http://www.inkscape.org/namespaces/inkscape"
   width="48"
   height="48"
   id="svg2448"
   sodipodi:version="0.32"
   inkscape:version="0.46"
   version="1.0"
   sodipodi:docname="tcbmode1.svg"
   inkscape:output_extension="org.inkscape.output.svg.inkscape">
  <defs
     id="defs2450">
    <linearGradient
       inkscape:collect="always"
       xlink:href="#linearGradient3165"
       id="linearGradient2442"
       gradientUnits="userSpaceOnUse"
       gradientTransform="matrix(0.4392113,0,0,0.4765171,5.9635246,1.14992)"
       x1="3.9687493"
       y1="20.632252"
       x2="43.40625"
       y2="20.632252" />
    <linearGradient
       id="linearGradient3165">
      <stop
         style="stop-color:#3e9ade;stop-opacity:1;"
         offset="0"
         id="stop3167" />
      <stop
         style="stop-color:#ffffff;stop-opacity:1;"
         offset="1"
         id="stop3169" />
    </linearGradient>
    <linearGradient
       inkscape:collect="always"
       xlink:href="#linearGradient3165"
       id="linearGradient2437"
       gradientUnits="userSpaceOnUse"
       gradientTransform="matrix(0.6879276,0,0,0.771848,15.367585,8.48271)"
       x1="3.9687493"
       y1="20.632252"
       x2="43.40625"
       y2="20.632252" />
    <inkscape:perspective
       sodipodi:type="inkscape:persp3d"
       inkscape:vp_x="0 : 526.18109 : 1"
       inkscape:vp_y="0 : 1000 : 0"
       inkscape:vp_z="744.09448 : 526.18109 : 1"
       inkscape:persp3d-origin="372.04724 : 350.78739 : 1"
       id="perspective2456" />
  </defs>
  <sodipodi:namedview
     id="base"
     pagecolor="#ffffff"
     bordercolor="#666666"
     borderopacity="1.0"
     gridtolerance="10000"
     guidetolerance="10"
     objecttolerance="10"
     inkscape:pageopacity="0.0"
     inkscape:pageshadow="2"
     inkscape:zoom="1.4"
     inkscape:cx="258.54782"
     inkscape:cy="125.60853"
     inkscape:document-units="px"
     inkscape:current-layer="layer1"
     showgrid="false"
     inkscape:window-width="775"
     inkscape:window-height="753"
     inkscape:window-x="241"
     inkscape:window-y="0" />
  <metadata
     id="metadata2453">
    <rdf:RDF>
      <cc:Work
         rdf:about="">
        <dc:format>image/svg+xml</dc:format>
        <dc:type
           rdf:resource="http://purl.org/dc/dcmitype/StillImage" />
      </cc:Work>
    </rdf:RDF>
  </metadata>
  <g
     inkscape:label="Layer 1"
     inkscape:groupmode="layer"
     id="layer1">
    <path
       style="fill:#6b6b6b;fill-opacity:0.22110554;stroke:none;stroke-width:0.37799999;stroke-linejoin:round;stroke-miterlimit:4;stroke-dashoffset:0;stroke-opacity:1"
       d="M 44.390665,44.21383 C 44.390665,46.12495 35.767615,47.676 25.142785,47.676 C 14.517955,47.676 5.8949046,46.12495 5.8949046,44.21383 C 5.8949046,42.30272 14.517955,40.75167 25.142785,40.75167 C 35.767615,40.75167 44.390665,42.30272 44.390665,44.21383 z"
       id="path2390" />
    <text
       xml:space="preserve"
       style="font-size:12px;font-style:normal;font-weight:bold;fill:#000000;fill-opacity:1;stroke:none;stroke-width:1px;stroke-linecap:butt;stroke-linejoin:miter;stroke-opacity:1;font-family:Bitstream Vera Sans"
       x="14.428495"
       y="15.713848"
       id="text2387"><tspan
         sodipodi:role="line"
         id="tspan2389"
         x="14.428495"
         y="15.713848" /></text>
    <text
       xml:space="preserve"
       style="font-size:12px;font-style:normal;font-weight:normal;fill:#000000;fill-opacity:1;stroke:none;stroke-width:1px;stroke-linecap:butt;stroke-linejoin:miter;stroke-opacity:1;font-family:Bitstream Vera Sans"
       x="16.999937"
       y="16.713848"
       id="text2396"><tspan
         sodipodi:role="line"
         id="tspan2398"
         x="16.999937"
         y="16.713848"
         style="font-style:normal;font-weight:bold" /></text>
    <path
       style="font-size:35.11172104px;font-style:normal;font-variant:normal;font-weight:normal;font-stretch:normal;fill:#000066;fill-opacity:1;stroke:#000066;stroke-width:0.41914615;stroke-linecap:butt;stroke-linejoin:miter;stroke-miterlimit:4;stroke-opacity:1;font-family:'微软雅黑';-inkscape-font-specification:'微软雅黑'"
       d="M 20.496005,18.67004 L 31.109895,18.67004 C 31.235285,16.46206 31.289025,13.9097 31.271125,11.01294 L 35.355455,11.01294 C 35.301705,14.02111 35.230045,16.57348 35.140495,18.67004 L 46.238065,18.67004 L 46.238065,22.86322 L 35.449505,22.86322 C 36.990075,29.62903 40.711645,34.17669 46.614255,36.50623 C 45.342345,38.14704 44.321265,39.54476 43.550995,40.69941 C 38.669485,38.10653 35.270355,33.92855 33.353595,28.16546 C 31.866745,33.44238 28.431785,37.69126 23.048715,40.91211 C 22.332155,39.879 21.320035,38.58256 20.012335,37.02279 C 26.532925,33.6804 30.102245,28.96055 30.720275,22.86322 L 20.496005,22.86322 L 20.496005,18.67004"
       id="text3181" />
    <path
       style="font-size:34.97667313px;font-style:normal;font-variant:normal;font-weight:normal;font-stretch:normal;fill:url(#linearGradient2437);fill-opacity:1;stroke:#0066f0;stroke-width:0.41753405;stroke-linecap:butt;stroke-linejoin:miter;stroke-miterlimit:4;stroke-opacity:1;font-family:'微软雅黑';-inkscape-font-specification:'微软雅黑'"
       d="M 19.032955,17.2922 L 29.647455,17.2922 C 29.772855,15.1013 29.826595,12.56868 29.808695,9.69433 L 33.893265,9.69433 C 33.839505,12.67923 33.767845,15.21185 33.678285,17.2922 L 44.776495,17.2922 L 44.776495,21.45295 L 33.987315,21.45295 C 35.527965,28.16642 39.249765,32.67892 45.152705,34.99044 C 43.880725,36.61855 42.859585,38.00547 42.089275,39.15118 C 37.207475,36.57835 33.808155,32.43269 31.891285,26.71418 C 30.404345,31.95028 26.969185,36.1663 21.585805,39.36223 C 20.869215,38.33712 19.857025,37.05071 18.549255,35.50299 C 25.070225,32.18646 28.639745,27.50312 29.257815,21.45295 L 19.032955,21.45295 L 19.032955,17.2922"
       id="text2399" />
    <text
       xml:space="preserve"
       style="font-size:12px;font-style:normal;font-weight:bold;fill:#000000;fill-opacity:1;stroke:none;stroke-width:1px;stroke-linecap:butt;stroke-linejoin:miter;stroke-opacity:1;font-family:Bitstream Vera Sans"
       x="-65.433655"
       y="18.681866"
       id="text2495"><tspan
         sodipodi:role="line"
         id="tspan2497"
         x="-65.433655"
         y="18.681866" /></text>
    <text
       xml:space="preserve"
       style="font-size:12px;font-style:normal;font-weight:normal;fill:#000000;fill-opacity:1;stroke:none;stroke-width:1px;stroke-linecap:butt;stroke-linejoin:miter;stroke-opacity:1;font-family:Bitstream Vera Sans"
       x="-62.862217"
       y="19.681866"
       id="text2499"><tspan
         sodipodi:role="line"
         id="tspan2501"
         x="-62.862217"
         y="19.681866"
         style="font-style:normal;font-weight:bold" /></text>
    <path
       style="font-size:48.18532562px;font-style:normal;font-variant:normal;font-weight:normal;font-stretch:normal;fill:#000066;fill-opacity:1;stroke:#000066;stroke-width:0.35374984;stroke-linecap:butt;stroke-linejoin:miter;stroke-miterlimit:4;stroke-opacity:1;font-family:'微软雅黑';-inkscape-font-specification:'微软雅黑'"
       d="M 7.8796446,14.97718 L 17.588825,14.97718 L 17.588825,24.40854 L 9.4939946,24.40854 L 9.4939946,25.41724 L 7.8796446,25.41724 L 7.8796446,14.97718 M 9.3786846,12.68238 L 9.3786846,11.09368 L 22.593325,11.09368 L 22.593325,24.88767 C 22.593295,27.05637 21.609315,28.14073 19.641365,28.14073 C 18.734235,28.14073 17.804055,28.11551 16.850835,28.06508 C 16.789325,27.57754 16.674015,26.93869 16.504905,26.14855 C 17.611875,26.24942 18.618925,26.29985 19.526055,26.29985 C 20.433145,26.29985 20.886695,25.80391 20.886715,24.81202 L 20.886715,12.68238 L 9.3786846,12.68238 M 5.7118046,3.35189 L 7.6490246,3.35189 C 7.2800246,4.17568 6.8879646,4.96583 6.4728546,5.72234 L 13.022515,5.72234 L 13.022515,7.31104 L 5.5042446,7.31104 C 4.5817446,8.72324 3.5516346,9.99252 2.4139046,11.11889 C 2.1064046,10.71543 1.7066646,10.26151 1.2146746,9.75715 C 3.1057746,7.9415 4.6048146,5.80642 5.7118046,3.35189 M 15.720795,3.35189 L 17.658015,3.35189 C 17.304375,4.17568 16.920005,4.96583 16.504905,5.72234 L 23.861745,5.72234 L 23.861745,7.31104 L 15.651605,7.31104 C 14.959725,8.48788 14.221735,9.60585 13.437635,10.66498 C 13.022505,10.34557 12.522825,9.99252 11.938595,9.60584 C 13.399185,7.80701 14.659915,5.72236 15.720795,3.35189 M 2.9904646,13.56499 L 4.6970646,13.56499 L 4.6970646,28.19117 L 2.9904646,28.19117 L 2.9904646,13.56499 M 9.4939946,22.89548 L 15.974475,22.89548 L 15.974475,20.39895 L 9.4939946,20.39895 L 9.4939946,22.89548 M 15.974475,16.49023 L 9.4939946,16.49023 L 9.4939946,18.93633 L 15.974475,18.93633 L 15.974475,16.49023 M 4.2819446,10.76585 L 5.4119946,9.68149 C 6.3652246,10.58934 7.2492746,11.53079 8.0641446,12.50586 L 6.7726646,13.79195 C 6.0500346,12.80007 5.2198046,11.79137 4.2819446,10.76585 M 18.695815,10.96759 C 18.403675,10.46325 17.780995,9.60585 16.827775,8.3954 L 18.027005,7.46235 C 18.857225,8.33657 19.533715,9.12672 20.056485,9.8328 L 18.695815,10.96759 M 8.8943846,10.94237 C 8.3408846,10.1018 7.7335746,9.26962 7.0724646,8.44583 L 8.2717046,7.48757 C 8.9635646,8.19367 9.6246746,8.96701 10.255055,9.80758 L 8.8943846,10.94237"
       id="path2503" />
    <path
       style="font-size:48px;font-style:normal;font-variant:normal;font-weight:normal;font-stretch:normal;fill:url(#linearGradient2442);fill-opacity:1;stroke:#0066f0;stroke-width:0.35238925;stroke-linecap:butt;stroke-linejoin:miter;stroke-miterlimit:4;stroke-opacity:1;font-family:'微软雅黑';-inkscape-font-specification:'微软雅黑'"
       d="M 7.3195546,14.44057 L 17.029295,14.44057 L 17.029295,23.79898 L 8.9339946,23.79898 L 8.9339946,24.79988 L 7.3195546,24.79988 L 7.3195546,14.44057 M 8.8186846,12.16352 L 8.8186846,10.58711 L 22.034075,10.58711 L 22.034075,24.27441 C 22.034055,26.42634 21.050015,27.50231 19.081945,27.50231 C 18.174765,27.50231 17.244535,27.47729 16.291265,27.42724 C 16.229745,26.94347 16.114425,26.30957 15.945305,25.52553 C 17.052335,25.62562 18.059445,25.67567 18.966625,25.67567 C 19.873775,25.67567 20.327355,25.18356 20.327375,24.19934 L 20.327375,12.16352 L 8.8186846,12.16352 M 5.1515846,2.9052 L 7.0889146,2.9052 C 6.7198946,3.72262 6.3278146,4.50666 5.9126746,5.25732 L 12.462715,5.25732 L 12.462715,6.83373 L 4.9440046,6.83373 C 4.0214646,8.23501 2.9912946,9.49447 1.8534946,10.61213 C 1.5459846,10.21178 1.1462146,9.76138 0.65419462,9.26092 C 2.5454046,7.45931 4.0445246,5.34074 5.1515846,2.9052 M 15.161145,2.9052 L 17.098485,2.9052 C 16.744825,3.72262 16.360435,4.50666 15.945305,5.25732 L 23.302565,5.25732 L 23.302565,6.83373 L 15.091955,6.83373 C 14.400035,8.00147 13.662005,9.11079 12.877855,10.16173 C 12.462705,9.84479 11.962995,9.49447 11.378735,9.11078 C 12.839405,7.32586 14.100215,5.25733 15.161145,2.9052 M 2.4300846,13.03931 L 4.1367846,13.03931 L 4.1367846,27.55236 L 2.4300846,27.55236 L 2.4300846,13.03931 M 8.9339946,22.29763 L 15.414845,22.29763 L 15.414845,19.82041 L 8.9339946,19.82041 L 8.9339946,22.29763 M 15.414845,15.94192 L 8.9339946,15.94192 L 8.9339946,18.3691 L 15.414845,18.3691 L 15.414845,15.94192 M 3.7216446,10.26182 L 4.8517546,9.18585 C 5.8050446,10.08667 6.6891446,11.02084 7.5040546,11.98837 L 6.2125046,13.26451 C 5.4898446,12.28031 4.6595546,11.27941 3.7216446,10.26182 M 18.136345,10.46199 C 17.844185,9.96156 17.221475,9.11079 16.268195,7.9097 L 17.467495,6.98387 C 18.297765,7.85133 18.974295,8.63537 19.497085,9.33598 L 18.136345,10.46199 M 8.3343446,10.43697 C 7.7808146,9.6029 7.1734746,8.77716 6.5123246,7.95975 L 7.7116346,7.00889 C 8.4035246,7.70954 9.0646846,8.47689 9.6950946,9.31096 L 8.3343446,10.43697"
       id="path2505" />
  </g>
</svg>
