<?xml version="1.0" encoding="UTF-8" standalone="no"?>
<!-- Created with Inkscape (http://www.inkscape.org/) -->
<svg
   xmlns:dc="http://purl.org/dc/elements/1.1/"
   xmlns:cc="http://creativecommons.org/ns#"
   xmlns:rdf="http://www.w3.org/1999/02/22-rdf-syntax-ns#"
   xmlns:svg="http://www.w3.org/2000/svg"
   xmlns="http://www.w3.org/2000/svg"
   xmlns:xlink="http://www.w3.org/1999/xlink"
   xmlns:sodipodi="http://sodipodi.sourceforge.net/DTD/sodipodi-0.dtd"
   xmlns:inkscape="http://www.inkscape.org/namespaces/inkscape"
   width="48"
   height="48"
   id="svg2402"
   sodipodi:version="0.32"
   inkscape:version="0.46"
   version="1.0"
   sodipodi:docname="tcmode.svg"
   inkscape:output_extension="org.inkscape.output.svg.inkscape">
  <defs
     id="defs2404">
    <linearGradient
       id="linearGradient3165">
      <stop
         style="stop-color:#3e9ade;stop-opacity:1;"
         offset="0"
         id="stop3167" />
      <stop
         style="stop-color:#ffffff;stop-opacity:1;"
         offset="1"
         id="stop3169" />
    </linearGradient>
    <linearGradient
       inkscape:collect="always"
       xlink:href="#linearGradient3165"
       id="linearGradient3192"
       gradientUnits="userSpaceOnUse"
       gradientTransform="translate(0.50725,0.8148474)"
       x1="3.9687493"
       y1="20.632252"
       x2="43.40625"
       y2="20.632252" />
    <inkscape:perspective
       sodipodi:type="inkscape:persp3d"
       inkscape:vp_x="0 : 526.18109 : 1"
       inkscape:vp_y="0 : 1000 : 0"
       inkscape:vp_z="744.09448 : 526.18109 : 1"
       inkscape:persp3d-origin="372.04724 : 350.78739 : 1"
       id="perspective2410" />
  </defs>
  <sodipodi:namedview
     id="base"
     pagecolor="#ffffff"
     bordercolor="#666666"
     borderopacity="1.0"
     gridtolerance="10000"
     guidetolerance="10"
     objecttolerance="10"
     inkscape:pageopacity="0.0"
     inkscape:pageshadow="2"
     inkscape:zoom="0.35"
     inkscape:cx="375"
     inkscape:cy="520"
     inkscape:document-units="px"
     inkscape:current-layer="layer1"
     showgrid="false"
     inkscape:window-width="775"
     inkscape:window-height="753"
     inkscape:window-x="241"
     inkscape:window-y="0" />
  <metadata
     id="metadata2407">
    <rdf:RDF>
      <cc:Work
         rdf:about="">
        <dc:format>image/svg+xml</dc:format>
        <dc:type
           rdf:resource="http://purl.org/dc/dcmitype/StillImage" />
      </cc:Work>
    </rdf:RDF>
  </metadata>
  <g
     inkscape:label="Layer 1"
     inkscape:groupmode="layer"
     id="layer1">
    <path
       sodipodi:type="arc"
       style="opacity:1;fill:#6b6b6b;fill-opacity:0.22110554;stroke:none;stroke-width:0.37799999;stroke-linejoin:round;stroke-miterlimit:4;stroke-dasharray:none;stroke-dashoffset:0;stroke-opacity:1"
       id="path2390"
       sodipodi:cx="25.357143"
       sodipodi:cy="45.357143"
       sodipodi:rx="15.642858"
       sodipodi:ry="2.3571429"
       d="M 41.000001,45.357143 A 15.642858,2.3571429 0 1 1 9.7142859,45.357143 A 15.642858,2.3571429 0 1 1 41.000001,45.357143 z"
       transform="matrix(1.2304582,0,0,1.4687983,-6.05798,-22.406663)" />
    <text
       xml:space="preserve"
       style="font-size:12px;font-style:normal;font-weight:bold;fill:#000000;fill-opacity:1;stroke:none;stroke-width:1px;stroke-linecap:butt;stroke-linejoin:miter;stroke-opacity:1;font-family:Bitstream Vera Sans"
       x="14.428642"
       y="15.713862"
       id="text2387"><tspan
         sodipodi:role="line"
         id="tspan2389"
         x="14.428642"
         y="15.713862" /></text>
    <text
       xml:space="preserve"
       style="font-size:12px;font-style:normal;font-weight:normal;fill:#000000;fill-opacity:1;stroke:none;stroke-width:1px;stroke-linecap:butt;stroke-linejoin:miter;stroke-opacity:1;font-family:Bitstream Vera Sans"
       x="17.000053"
       y="16.713863"
       id="text2396"><tspan
         sodipodi:role="line"
         id="tspan2398"
         x="17.000053"
         y="16.713863"
         style="font-style:normal;font-weight:bold" /></text>
    <path
       style="font-size:48.18532562px;font-style:normal;font-variant:normal;font-weight:normal;font-stretch:normal;fill:#000066;fill-opacity:1;stroke:#000066;stroke-width:0.57521236;stroke-linecap:butt;stroke-linejoin:miter;stroke-miterlimit:4;stroke-opacity:1;font-family:'微软雅黑';-inkscape-font-specification:'微软雅黑'"
       d="M 6.23776,14.538637 L 10.0266,14.538637 L 11.08123,9.6571274 L 24.98668,9.6571274 L 24.63514,14.538637 L 28.54116,14.538637 L 28.54116,16.506987 L 24.51796,16.506987 L 24.32266,19.459507 L 26.58815,19.459507 L 26.58815,21.427857 L 24.24453,21.427857 L 24.12735,22.805707 L 23.07273,22.805707 C 20.83326,23.750527 18.64589,24.655967 16.51061,25.522027 C 20.67702,25.312077 25.0778,25.075877 29.71297,24.813427 C 31.32743,24.078587 32.91588,23.304367 34.47832,22.490767 L 36.70475,24.419747 C 30.50717,27.149207 24.14036,29.511227 17.60429,31.505807 C 24.0362,31.295857 29.88221,31.046537 35.14234,30.757837 C 34.25695,29.891767 33.41065,29.091307 32.60343,28.356447 L 34.47832,26.781767 C 36.50942,28.513927 38.94417,30.731597 41.78259,33.434787 L 39.67333,35.324407 C 38.86606,34.484577 38.07183,33.684117 37.29066,32.923017 C 33.72313,33.028007 30.52019,33.119857 27.68184,33.198587 L 27.68184,36.859717 C 27.68181,39.877857 26.23659,41.386917 23.34615,41.386927 C 21.78372,41.386917 20.13017,41.360677 18.3855,41.308187 C 18.28132,40.494597 18.12508,39.549797 17.91678,38.473767 C 19.73957,38.683717 21.2499,38.788697 22.44776,38.788707 C 24.01016,38.788697 24.79136,38.080097 24.79138,36.662887 L 24.79138,33.316687 C 18.3334,33.474167 13.84148,33.762857 11.31559,34.182767 L 10.14378,31.545177 C 11.78431,31.308977 13.529,30.902187 15.37786,30.324797 C 18.58079,29.327507 21.69258,28.212117 24.71326,26.978607 C 18.09904,27.346037 13.84148,27.674097 11.94056,27.962777 L 10.88593,25.600757 C 13.43786,24.970897 16.75798,23.579937 20.84629,21.427857 L 8.54231,21.427857 L 9.59694,16.506987 L 6.23776,16.506987 L 6.23776,14.538637 M 26.19755,11.468017 C 28.41094,9.1847574 30.16865,6.3372174 31.47068,2.9253774 L 33.97054,3.6339874 C 33.55387,4.6575574 33.09816,5.6417274 32.60343,6.5865074 L 44.39962,6.5865074 L 44.39962,8.9485274 L 41.35292,8.9485274 C 40.83209,11.966687 39.55612,14.604267 37.52502,16.861287 C 39.42592,18.252277 41.80859,19.367677 44.67305,20.207487 C 43.73556,21.283527 43.07154,22.110237 42.68097,22.687607 C 39.84256,21.611587 37.45989,20.286237 35.53295,18.711537 C 33.65803,20.233747 31.35347,21.545977 28.61928,22.648237 C 28.17658,21.939647 27.61671,21.165427 26.93969,20.325587 C 29.62181,19.433287 31.86126,18.304767 33.65806,16.940027 C 32.0175,15.155407 30.83267,13.121447 30.10357,10.838137 C 29.47858,11.756727 28.82758,12.635927 28.15056,13.475727 C 27.49953,12.767147 26.84853,12.097907 26.19755,11.468017 M 6.23776,10.405107 C 8.71157,8.1743374 10.50834,5.6286074 11.62807,2.7679074 L 14.04981,3.4371474 C 13.76336,4.0932974 13.45088,4.7362874 13.11236,5.3661274 L 27.01781,5.3661274 L 27.01781,7.4919474 L 11.9015,7.4919474 C 10.78176,9.2503674 9.46674,10.903777 7.95641,12.452187 C 7.40957,11.743607 6.83668,11.061247 6.23776,10.405107 M 17.44805,34.458337 L 19.24482,36.426687 C 15.88563,37.975117 12.37021,39.444817 8.69856,40.835787 C 8.33399,40.258397 7.86527,39.497307 7.29239,38.552497 C 11.09425,37.292757 14.47946,35.928037 17.44805,34.458337 M 31.47068,36.505417 L 32.75967,34.497697 C 35.3897,35.442507 38.74887,36.820357 42.83721,38.631237 L 41.47011,40.953887 C 37.90257,39.221737 34.56943,37.738917 31.47068,36.505417 M 35.57201,15.207877 C 37.21251,13.423267 38.26713,11.336817 38.73589,8.9485274 L 32.09564,8.9485274 C 32.72058,11.363057 33.87937,13.449507 35.57201,15.207877 M 14.98726,17.845467 L 16.04188,16.506987 L 11.97962,16.506987 L 11.35465,19.459507 L 17.36993,19.459507 C 16.771,18.987127 15.97677,18.449107 14.98726,17.845467 M 19.01046,18.042297 L 17.83865,19.459507 L 21.90092,19.459507 L 22.13528,16.506987 L 16.47155,16.506987 C 17.38294,17.005657 18.22924,17.517427 19.01046,18.042297 M 19.362,13.239527 L 18.11208,14.538637 L 22.29152,14.538637 L 22.52588,11.625477 L 17.01839,11.625477 C 17.8777,12.202887 18.65891,12.740907 19.362,13.239527 M 15.41692,12.845857 L 16.54967,11.625477 L 13.03424,11.625477 L 12.40928,14.538637 L 17.64335,14.538637 C 16.86214,13.882547 16.11999,13.318287 15.41692,12.845857"
       id="text3181" />
    <path
       style="font-size:48px;font-style:normal;font-variant:normal;font-weight:normal;font-stretch:normal;fill:url(#linearGradient3192);fill-opacity:1;stroke:#0066f0;stroke-width:0.57300001;stroke-linecap:butt;stroke-linejoin:miter;stroke-miterlimit:4;stroke-opacity:1;font-family:'微软雅黑';-inkscape-font-specification:'微软雅黑'"
       d="M 5.2885,13.751797 L 9.07756,13.751797 L 10.13225,8.9080474 L 24.0385,8.9080474 L 23.68693,13.751797 L 27.59318,13.751797 L 27.59318,15.704917 L 23.56975,15.704917 L 23.37443,18.634607 L 25.64006,18.634607 L 25.64006,20.587737 L 23.29631,20.587737 L 23.17912,21.954917 L 22.12443,21.954917 C 19.88484,22.892437 17.69734,23.790867 15.56193,24.650237 C 19.72859,24.441907 24.12962,24.207537 28.76506,23.947107 C 30.37962,23.217957 31.96816,22.449727 33.53068,21.642417 L 35.75725,23.556487 C 29.5593,26.264827 23.19212,28.608577 16.65568,30.587737 C 23.08796,30.379407 28.93431,30.132007 34.19475,29.845547 C 33.3093,28.986177 32.46295,28.191907 31.65568,27.462737 L 33.53068,25.900237 C 35.5619,27.618987 37.9968,29.819507 40.83537,32.501797 L 38.726,34.376797 C 37.91867,33.543467 37.1244,32.749197 36.34318,31.993987 C 32.77545,32.098157 29.57233,32.189297 26.73381,32.267417 L 26.73381,35.900237 C 26.73379,38.895017 25.28848,40.392417 22.39787,40.392417 C 20.83535,40.392417 19.18171,40.366377 17.43693,40.314297 C 17.33275,39.506997 17.1765,38.569497 16.96818,37.501797 C 18.79109,37.710127 20.3015,37.814297 21.49943,37.814297 C 23.06192,37.814297 23.84316,37.111167 23.84318,35.704917 L 23.84318,32.384607 C 17.38484,32.540857 12.89265,32.827317 10.36662,33.243987 L 9.19475,30.626797 C 10.83536,30.392427 12.58015,29.988777 14.42912,29.415857 C 17.63223,28.426277 20.74421,27.319507 23.76506,26.095547 C 17.15046,26.460137 12.89265,26.785657 10.99162,27.072107 L 9.93693,24.728357 C 12.48901,24.103367 15.80932,22.723167 19.89787,20.587737 L 7.59318,20.587737 L 8.64787,15.704917 L 5.2885,15.704917 L 5.2885,13.751797 M 25.24943,10.704917 C 27.46295,8.4393274 29.22076,5.6138074 30.52287,2.2283574 L 33.02287,2.9314874 C 32.60618,3.9471374 32.15045,4.9236974 31.65568,5.8611674 L 43.45256,5.8611674 L 43.45256,8.2049174 L 40.40568,8.2049174 C 39.88482,11.199737 38.60877,13.816917 36.57756,16.056487 C 38.47857,17.436707 40.86138,18.543477 43.726,19.376797 C 42.78846,20.444517 42.1244,21.264827 41.73381,21.837737 C 38.89523,20.770037 36.51242,19.454937 34.58537,17.892417 C 32.71034,19.402857 30.40566,20.704937 27.67131,21.798667 C 27.22858,21.095557 26.66868,20.327327 25.99162,19.493987 C 28.67389,18.608587 30.91347,17.488797 32.71037,16.134607 C 31.06972,14.363797 29.88483,12.345567 29.15568,10.079917 C 28.53066,10.991407 27.87962,11.863797 27.20256,12.697107 C 26.5515,11.994007 25.90045,11.329947 25.24943,10.704917 M 5.2885,9.6502374 C 7.76245,7.4367174 9.55933,4.9106774 10.67912,2.0721074 L 13.101,2.7361674 C 12.81453,3.3872474 12.50203,4.0252674 12.1635,4.6502374 L 26.06975,4.6502374 L 26.06975,6.7596074 L 10.95256,6.7596074 C 9.83276,8.5044274 8.51766,10.145047 7.00725,11.681487 C 6.46037,10.978387 5.88745,10.301297 5.2885,9.6502374 M 16.49943,33.517417 L 18.29631,35.470547 C 14.93692,37.007007 11.4213,38.465337 7.74943,39.845547 C 7.38485,39.272627 6.9161,38.517417 6.34318,37.579917 C 10.14526,36.329917 13.53067,34.975757 16.49943,33.517417 M 30.52287,35.548667 L 31.81193,33.556487 C 34.44211,34.493987 37.80148,35.861167 41.89006,37.658047 L 40.52287,39.962737 C 36.95513,38.243977 33.6218,36.772627 30.52287,35.548667 M 34.62443,14.415857 C 36.26503,12.645047 37.31971,10.574737 37.7885,8.2049174 L 31.14787,8.2049174 C 31.77284,10.600777 32.9317,12.671087 34.62443,14.415857 M 14.0385,17.033047 L 15.09318,15.704917 L 11.03068,15.704917 L 10.40568,18.634607 L 16.42131,18.634607 C 15.82234,18.165877 15.02807,17.632017 14.0385,17.033047 M 18.06193,17.228357 L 16.89006,18.634607 L 20.95256,18.634607 L 21.18693,15.704917 L 15.52287,15.704917 C 16.43432,16.199727 17.28067,16.707547 18.06193,17.228357 M 18.4135,12.462737 L 17.1635,13.751797 L 21.34318,13.751797 L 21.57756,10.861167 L 16.06975,10.861167 C 16.92911,11.434107 17.71036,11.967967 18.4135,12.462737 M 14.46818,12.072107 L 15.601,10.861167 L 12.08537,10.861167 L 11.46037,13.751797 L 16.69475,13.751797 C 15.91348,13.100777 15.1713,12.540877 14.46818,12.072107"
       id="text2399" />
  </g>
</svg>
